<svg xmlns="http://www.w3.org/2000/svg" viewBox="0 0 1600 1000" role="img" aria-label="Palephone communications dashboard">
  <defs>
    <linearGradient id="bg" x1="0" x2="1" y1="0" y2="1">
      <stop offset="0" stop-color="#20242c"/>
      <stop offset="0.55" stop-color="#111318"/>
      <stop offset="1" stop-color="#0c0d10"/>
    </linearGradient>
    <linearGradient id="green" x1="0" x2="1">
      <stop offset="0" stop-color="#3ddc97"/>
      <stop offset="1" stop-color="#76a7ff"/>
    </linearGradient>
  </defs>
  <rect width="1600" height="1000" fill="url(#bg)"/>
  <g opacity="0.7">
    <rect x="145" y="126" width="1310" height="748" rx="18" fill="#171a20" stroke="#ffffff" stroke-opacity="0.12"/>
    <rect x="145" y="126" width="1310" height="64" rx="18" fill="#20252d"/>
    <circle cx="184" cy="158" r="9" fill="#ff6b6b"/>
    <circle cx="214" cy="158" r="9" fill="#f2b84b"/>
    <circle cx="244" cy="158" r="9" fill="#3ddc97"/>
    <rect x="184" y="235" width="238" height="590" rx="12" fill="#101216" stroke="#ffffff" stroke-opacity="0.1"/>
    <rect x="462" y="235" width="472" height="276" rx="12" fill="#101216" stroke="#ffffff" stroke-opacity="0.1"/>
    <rect x="974" y="235" width="300" height="276" rx="12" fill="#101216" stroke="#ffffff" stroke-opacity="0.1"/>
    <rect x="462" y="551" width="812" height="274" rx="12" fill="#101216" stroke="#ffffff" stroke-opacity="0.1"/>
    <rect x="206" y="260" width="88" height="14" rx="7" fill="#f5f1e8" opacity="0.86"/>
    <rect x="206" y="296" width="178" height="10" rx="5" fill="#ffffff" opacity="0.22"/>
    <rect x="206" y="327" width="155" height="10" rx="5" fill="#ffffff" opacity="0.16"/>
    <rect x="206" y="384" width="174" height="44" rx="8" fill="#3ddc97" opacity="0.9"/>
    <rect x="206" y="454" width="176" height="44" rx="8" fill="#20252d"/>
    <rect x="206" y="524" width="176" height="44" rx="8" fill="#20252d"/>
    <rect x="500" y="270" width="178" height="16" rx="8" fill="#f5f1e8" opacity="0.84"/>
    <rect x="500" y="312" width="360" height="12" rx="6" fill="#ffffff" opacity="0.2"/>
    <rect x="500" y="354" width="320" height="12" rx="6" fill="#ffffff" opacity="0.14"/>
    <path d="M515 457 C590 360 670 430 740 340 C805 255 860 345 910 292" fill="none" stroke="url(#green)" stroke-width="8" stroke-linecap="round"/>
    <circle cx="1040" cy="318" r="42" fill="#3ddc97" opacity="0.9"/>
    <circle cx="1145" cy="318" r="42" fill="#76a7ff" opacity="0.86"/>
    <circle cx="1092" cy="415" r="42" fill="#f2b84b" opacity="0.86"/>
    <rect x="500" y="594" width="688" height="16" rx="8" fill="#f5f1e8" opacity="0.8"/>
    <rect x="500" y="644" width="706" height="12" rx="6" fill="#ffffff" opacity="0.18"/>
    <rect x="500" y="690" width="628" height="12" rx="6" fill="#ffffff" opacity="0.14"/>
    <rect x="500" y="736" width="450" height="12" rx="6" fill="#ffffff" opacity="0.14"/>
    <rect x="1270" y="345" width="186" height="128" rx="14" fill="#20252d" stroke="#ffffff" stroke-opacity="0.1"/>
    <path d="M1304 414 h118" stroke="#3ddc97" stroke-width="10" stroke-linecap="round"/>
    <path d="M1304 446 h70" stroke="#ffffff" stroke-width="8" stroke-linecap="round" opacity="0.24"/>
  </g>
</svg>
